<svg version="1.1" xmlns="http://www.w3.org/2000/svg" viewBox="0 0 62 64.66668701171875" width="62" height="64.66668701171875">
  <!-- svg-source:excalidraw -->
  <rect x="0" y="0" width="44" height="45" fill="#ffffff"></rect><g stroke-linecap="round"><path d="M2.79 2.43 C2.79 2.43, 2.79 2.43, 2.79 2.43 M2.79 2.43 C2.79 2.43, 2.79 2.43, 2.79 2.43 M3.19 8.07 C5.33 5.88, 8.18 1.76, 10.41 -0.23 M3.19 8.07 C5.63 4.71, 9.03 1.61, 10.41 -0.23 M2.93 14.47 C7.89 9.03, 10.99 4.92, 13.42 2.4 M2.93 14.47 C6.41 10.09, 10.27 6.75, 13.42 2.4 M2.67 20.87 C7.72 13.63, 13.87 8.36, 18.41 2.76 M2.67 20.87 C6.16 17.26, 9.67 12.66, 18.41 2.76 M3.06 26.51 C8.79 18.93, 16.61 12.18, 24.06 2.36 M3.06 26.51 C9.86 18.33, 18.23 10.19, 24.06 2.36 M0.83 35.17 C8.97 29.8, 13.45 21.87, 29.04 2.72 M0.83 35.17 C11.78 22.12, 21.81 10.84, 29.04 2.72 M2.54 39.31 C10.19 31.32, 20.07 21.39, 34.69 2.33 M2.54 39.31 C8.97 31.95, 16.35 23.55, 34.69 2.33 M4.24 43.44 C9.76 35.39, 18.72 27.35, 39.67 2.69 M4.24 43.44 C12.21 35.19, 18.57 25.6, 39.67 2.69 M8.58 44.56 C19.12 34.36, 26 23.08, 40.72 7.57 M8.58 44.56 C16.9 35.69, 25.94 24.84, 40.72 7.57 M12.25 46.42 C21.16 39.42, 26.42 32.29, 43.09 10.95 M12.25 46.42 C21.55 35.21, 32.22 23.21, 43.09 10.95 M17.89 46.03 C23.19 38.75, 30.3 28.01, 42.82 17.35 M17.89 46.03 C24.98 36.18, 33.82 27.7, 42.82 17.35 M22.88 46.39 C29.36 38.25, 34.08 33.59, 42.56 23.75 M22.88 46.39 C26.71 40.61, 31.2 36.55, 42.56 23.75 M28.52 46 C34.53 41.04, 39.5 33.72, 42.96 29.39 M28.52 46 C34.48 40.33, 40.02 34.27, 42.96 29.39 M33.51 46.36 C36.12 44.1, 37.24 39.03, 43.35 35.04 M33.51 46.36 C37.67 42.89, 41.16 37.85, 43.35 35.04" stroke="#c91e1e" stroke-width="0.5" fill="none"></path><path d="M10.5 0 M10.5 0 C16.57 -0.05, 26.81 1.73, 31.5 0 M10.5 0 C18.56 0.88, 27.42 -0.09, 31.5 0 M31.5 0 C38.01 -0.65, 43.63 2.14, 42 10.5 M31.5 0 C36.9 0.35, 41.06 1.7, 42 10.5 M42 10.5 C42.42 16.8, 40.34 24.61, 42 34.17 M42 10.5 C42.68 18.45, 42.29 26.44, 42 34.17 M42 34.17 C40.34 39.78, 36.93 43.48, 31.5 44.67 M42 34.17 C43.56 40.79, 38.31 42.75, 31.5 44.67 M31.5 44.67 C24.43 43.44, 18.61 45.27, 10.5 44.67 M31.5 44.67 C25.76 43.6, 19.34 45.24, 10.5 44.67 M10.5 44.67 C4.01 43.22, 1.13 40.34, 0 34.17 M10.5 44.67 C5.7 42.84, 1.72 39.43, 0 34.17 M0 34.17 C2.08 29.57, -0.18 23.77, 0 10.5 M0 34.17 C0.66 27.3, -0.81 23.24, 0 10.5 M0 10.5 C0.6 2.09, 4.28 1.7, 10.5 0 M0 10.5 C2.03 2.45, 1.31 0.03, 10.5 0" stroke="#000000" stroke-width="1" fill="none"></path></g></svg>